<svg width="26" height="30" viewBox="0 0 26 30" fill="none" xmlns="http://www.w3.org/2000/svg">
<path d="M25.9602 29.0139L23.6801 7.30063C23.6323 6.84607 23.2491 6.50092 22.7921 6.50092H18.5065V5.52382C18.5065 2.4781 16.0284 0 12.9827 0C9.9367 0 7.4586 2.4781 7.4586 5.52382V6.50092H3.17302C2.71595 6.50092 2.3328 6.84607 2.28496 7.30063L0.0048477 29.0139C-0.0214737 29.2655 0.060237 29.5165 0.22938 29.7047C0.398753 29.8926 0.639994 29.9999 0.892908 29.9999H25.0719C25.3251 29.9999 25.5663 29.8926 25.7355 29.7047C25.9051 29.5165 25.9865 29.2655 25.9602 29.0139ZM9.24433 5.52382C9.24433 3.46275 10.9213 1.78573 12.9827 1.78573C15.0437 1.78573 16.7207 3.46275 16.7207 5.52382V6.50092H9.24433V5.52382ZM1.88442 28.2142L3.97708 8.28665H7.4586V10.2543C7.4586 10.7474 7.85846 11.1472 8.35147 11.1472C8.84448 11.1472 9.24433 10.7474 9.24433 10.2543V8.28665H16.7207V10.2543C16.7207 10.7474 17.1206 11.1472 17.6136 11.1472C18.1066 11.1472 18.5065 10.7474 18.5065 10.2543V8.28665H21.988L24.0807 28.2142H1.88442Z" fill="#3F3D56"/>
</svg>
