<svg width="52" height="52" viewBox="0 0 52 52" fill="none" xmlns="http://www.w3.org/2000/svg">
<rect width="52" height="52" rx="26" fill="#FFF680"/>
<path d="M39.011 37.0139L36.7309 15.3006C36.683 14.8461 36.2999 14.5009 35.8428 14.5009H31.5572V13.5238C31.5572 10.4781 29.0791 8 26.0334 8C22.9875 8 20.5094 10.4781 20.5094 13.5238V14.5009H16.2238C15.7667 14.5009 15.3836 14.8461 15.3357 15.3006L13.0556 37.0139C13.0293 37.2655 13.111 37.5165 13.2801 37.7047C13.4495 37.8926 13.6908 37.9999 13.9437 37.9999H38.1227C38.3758 37.9999 38.6171 37.8926 38.7862 37.7047C38.9558 37.5165 39.0373 37.2655 39.011 37.0139ZM22.2951 13.5238C22.2951 11.4627 23.9721 9.78573 26.0334 9.78573C28.0945 9.78573 29.7715 11.4627 29.7715 13.5238V14.5009H22.2951V13.5238ZM14.9352 36.2142L17.0279 16.2867H20.5094V18.2543C20.5094 18.7474 20.9092 19.1472 21.4022 19.1472C21.8952 19.1472 22.2951 18.7474 22.2951 18.2543V16.2867H29.7715V18.2543C29.7715 18.7474 30.1714 19.1472 30.6644 19.1472C31.1574 19.1472 31.5572 18.7474 31.5572 18.2543V16.2867H35.0388L37.1314 36.2142H14.9352Z" fill="#3F3D56"/>
</svg>
