<svg width="44" height="44" viewBox="0 0 44 44" fill="none" xmlns="http://www.w3.org/2000/svg">
<rect width="44" height="44" rx="22" fill="#FFEE00"/>
<path d="M21.5 28.3268C21.2303 28.3268 21.0117 28.5454 21.0117 28.8151C21.0117 28.8157 21.0117 28.8164 21.0117 28.8171C21.0117 28.8177 21.0117 28.8184 21.0117 28.819V28.8229C21.0117 29.0926 21.2303 29.3112 21.5 29.3112C21.7697 29.3112 21.9883 29.0926 21.9883 28.8229C21.9883 28.8222 21.9883 28.8217 21.9883 28.821C21.9883 28.8203 21.9883 28.8197 21.9883 28.819C21.9883 28.8183 21.9883 28.8177 21.9883 28.8171C21.9883 28.8164 21.9883 28.8157 21.9883 28.8151C21.9883 28.5454 21.7697 28.3268 21.5 28.3268Z" fill="#3F3D56"/>
<path d="M29.2148 10H13.7852C11.1466 10 9 12.1466 9 14.7852V30.2148C9 32.8534 11.1466 35 13.7852 35H21.5C21.7697 35 21.9883 34.7814 21.9883 34.5117V30.7275C21.9883 30.4579 21.7697 30.2393 21.5 30.2393C21.2303 30.2393 21.0117 30.4579 21.0117 30.7275V34.0234H13.7852C11.6851 34.0234 9.97656 32.3149 9.97656 30.2148V14.7852C9.97656 12.6851 11.6851 10.9766 13.7852 10.9766H29.2148C31.3149 10.9766 33.0234 12.6851 33.0234 14.7852V30.2148C33.0234 32.3149 31.3149 34.0234 29.2148 34.0234H26.0898V25.4053H28.9209C29.1717 25.4053 29.3817 25.2154 29.4068 24.9659L29.7579 21.4769C29.7717 21.3396 29.7268 21.2028 29.6342 21.1005C29.5417 20.9981 29.4101 20.9397 29.2721 20.9397H26.0898V19.1077C26.0898 18.7761 26.1955 18.6528 26.4795 18.6528H29.2501C29.5198 18.6528 29.7384 18.4342 29.7384 18.1645V14.7631C29.7384 14.4935 29.5198 14.2749 29.2501 14.2749H25.6116C23.55 14.2749 22.4566 15.1804 21.9024 15.9401C21.1274 17.0025 21.0117 18.2572 21.0117 18.9105V20.9616H18.6191C18.3494 20.9616 18.1308 21.1802 18.1308 21.4499V24.917C18.1308 25.1867 18.3494 25.4053 18.6191 25.4053H21.0117V26.7969C21.0117 27.0666 21.2303 27.2852 21.5 27.2852C21.7696 27.2852 21.9882 27.0666 21.9882 26.7969V24.917C21.9882 24.6473 21.7696 24.4287 21.5 24.4287H19.1074V21.9381H21.5C21.7696 21.9381 21.9882 21.7195 21.9882 21.4499V18.9104C21.9882 17.8103 22.3413 15.2514 25.6116 15.2514H28.7619V17.6762H26.4795C25.8493 17.6762 25.1133 18.0511 25.1133 19.1076V21.428C25.1133 21.6977 25.3319 21.9163 25.6016 21.9163H28.7322L28.4793 24.4287H25.6016C25.3319 24.4287 25.1133 24.6473 25.1133 24.917V34.5117C25.1133 34.7814 25.3319 35 25.6016 35H29.2148C31.8534 35 34 32.8534 34 30.2148V14.7852C34 12.1466 31.8534 10 29.2148 10Z" fill="#3F3D56"/>
<path d="M11.832 15.0049C11.5624 15.0049 11.3438 15.2235 11.3438 15.4932V19.5703C11.3438 19.84 11.5624 20.0586 11.832 20.0586C12.1017 20.0586 12.3203 19.84 12.3203 19.5703V15.4932C12.3203 15.2235 12.1017 15.0049 11.832 15.0049Z" fill="#3F3D56"/>
<path d="M11.832 21.2003C11.5624 21.2003 11.3438 21.4189 11.3438 21.6886V21.6943C11.3438 21.964 11.5624 22.1826 11.832 22.1826C12.1017 22.1826 12.3203 21.964 12.3203 21.6943V21.6886C12.3203 21.4189 12.1017 21.2003 11.832 21.2003Z" fill="#3F3D56"/>
</svg>
