<svg width="70" height="70" viewBox="0 0 70 70" fill="none" xmlns="http://www.w3.org/2000/svg">
<path d="M1.16667 9.33333C1.47609 9.33333 1.77283 9.21042 1.99162 8.99162C2.21042 8.77283 2.33333 8.47609 2.33333 8.16667V2.33333H8.16667C8.47609 2.33333 8.77283 2.21042 8.99162 1.99162C9.21042 1.77283 9.33333 1.47609 9.33333 1.16667C9.33333 0.857247 9.21042 0.560501 8.99162 0.341709C8.77283 0.122916 8.47609 0 8.16667 0H1.16667C0.857247 0 0.560501 0.122916 0.341709 0.341709C0.122916 0.560501 0 0.857247 0 1.16667V8.16667C0 8.47609 0.122916 8.77283 0.341709 8.99162C0.560501 9.21042 0.857247 9.33333 1.16667 9.33333Z" fill="#3F3D56"/>
<path d="M68.8333 0H61.8333C61.5239 0 61.2271 0.122916 61.0083 0.341709C60.7895 0.560501 60.6666 0.857247 60.6666 1.16667C60.6666 1.47609 60.7895 1.77283 61.0083 1.99162C61.2271 2.21042 61.5239 2.33333 61.8333 2.33333H67.6666V8.16667C67.6666 8.47609 67.7895 8.77283 68.0083 8.99162C68.2271 9.21042 68.5239 9.33333 68.8333 9.33333C69.1427 9.33333 69.4395 9.21042 69.6583 8.99162C69.877 8.77283 70 8.47609 70 8.16667V1.16667C70 0.857247 69.877 0.560501 69.6583 0.341709C69.4395 0.122916 69.1427 0 68.8333 0V0Z" fill="#3F3D56"/>
<path d="M8.16667 67.6667H2.33333V61.8333C2.33333 61.5239 2.21042 61.2272 1.99162 61.0084C1.77283 60.7896 1.47609 60.6667 1.16667 60.6667C0.857247 60.6667 0.560501 60.7896 0.341709 61.0084C0.122916 61.2272 0 61.5239 0 61.8333V68.8333C0 69.1427 0.122916 69.4395 0.341709 69.6583C0.560501 69.8771 0.857247 70 1.16667 70H8.16667C8.47609 70 8.77283 69.8771 8.99162 69.6583C9.21042 69.4395 9.33333 69.1427 9.33333 68.8333C9.33333 68.5239 9.21042 68.2272 8.99162 68.0084C8.77283 67.7896 8.47609 67.6667 8.16667 67.6667Z" fill="#3F3D56"/>
<path d="M68.8333 60.6667C68.5239 60.6667 68.2271 60.7896 68.0083 61.0084C67.7895 61.2272 67.6666 61.5239 67.6666 61.8333V67.6667H61.8333C61.5239 67.6667 61.2271 67.7896 61.0083 68.0084C60.7895 68.2272 60.6666 68.5239 60.6666 68.8333C60.6666 69.1427 60.7895 69.4395 61.0083 69.6583C61.2271 69.8771 61.5239 70 61.8333 70H68.8333C69.1427 70 69.4395 69.8771 69.6583 69.6583C69.877 69.4395 70 69.1427 70 68.8333V61.8333C70 61.5239 69.877 61.2272 69.6583 61.0084C69.4395 60.7896 69.1427 60.6667 68.8333 60.6667Z" fill="#3F3D56"/>
<path d="M21 19.8333V5.83332C21 5.5239 20.877 5.22716 20.6583 5.00837C20.4395 4.78957 20.1427 4.66666 19.8333 4.66666H5.83329C5.52387 4.66666 5.22713 4.78957 5.00833 5.00837C4.78954 5.22716 4.66663 5.5239 4.66663 5.83332V19.8333C4.66663 20.1427 4.78954 20.4395 5.00833 20.6583C5.22713 20.8771 5.52387 21 5.83329 21H19.8333C20.1427 21 20.4395 20.8771 20.6583 20.6583C20.877 20.4395 21 20.1427 21 19.8333ZM18.6666 18.6667H6.99996V6.99999H18.6666V18.6667Z" fill="#3F3D56"/>
<path d="M10.5 16.3333H15.1667C15.4761 16.3333 15.7729 16.2104 15.9917 15.9916C16.2105 15.7728 16.3334 15.4761 16.3334 15.1667V10.5C16.3334 10.1906 16.2105 9.89384 15.9917 9.67505C15.7729 9.45626 15.4761 9.33334 15.1667 9.33334H10.5C10.1906 9.33334 9.89388 9.45626 9.67508 9.67505C9.45629 9.89384 9.33337 10.1906 9.33337 10.5V15.1667C9.33337 15.4761 9.45629 15.7728 9.67508 15.9916C9.89388 16.2104 10.1906 16.3333 10.5 16.3333ZM11.6667 11.6667H14V14H11.6667V11.6667Z" fill="#3F3D56"/>
<path d="M65.3333 5.83332C65.3333 5.5239 65.2104 5.22716 64.9916 5.00837C64.7728 4.78957 64.4761 4.66666 64.1667 4.66666H50.1667C49.8572 4.66666 49.5605 4.78957 49.3417 5.00837C49.1229 5.22716 49 5.5239 49 5.83332V19.8333C49 20.1427 49.1229 20.4395 49.3417 20.6583C49.5605 20.8771 49.8572 21 50.1667 21H64.1667C64.4761 21 64.7728 20.8771 64.9916 20.6583C65.2104 20.4395 65.3333 20.1427 65.3333 19.8333V5.83332ZM63 18.6667H51.3333V6.99999H63V18.6667Z" fill="#3F3D56"/>
<path d="M54.8333 16.3333H59.5C59.8094 16.3333 60.1061 16.2104 60.3249 15.9916C60.5437 15.7728 60.6666 15.4761 60.6666 15.1667V10.5C60.6666 10.1906 60.5437 9.89384 60.3249 9.67505C60.1061 9.45626 59.8094 9.33334 59.5 9.33334H54.8333C54.5239 9.33334 54.2271 9.45626 54.0083 9.67505C53.7895 9.89384 53.6666 10.1906 53.6666 10.5V15.1667C53.6666 15.4761 53.7895 15.7728 54.0083 15.9916C54.2271 16.2104 54.5239 16.3333 54.8333 16.3333ZM56 11.6667H58.3333V14H56V11.6667Z" fill="#3F3D56"/>
<path d="M19.8333 49H5.83329C5.52387 49 5.22713 49.1229 5.00833 49.3417C4.78954 49.5605 4.66663 49.8572 4.66663 50.1667V64.1667C4.66663 64.4761 4.78954 64.7728 5.00833 64.9916C5.22713 65.2104 5.52387 65.3333 5.83329 65.3333H19.8333C20.1427 65.3333 20.4395 65.2104 20.6583 64.9916C20.877 64.7728 21 64.4761 21 64.1667V50.1667C21 49.8572 20.877 49.5605 20.6583 49.3417C20.4395 49.1229 20.1427 49 19.8333 49ZM18.6666 63H6.99996V51.3333H18.6666V63Z" fill="#3F3D56"/>
<path d="M10.5 60.6667H15.1667C15.4761 60.6667 15.7729 60.5437 15.9917 60.3249C16.2105 60.1062 16.3334 59.8094 16.3334 59.5V54.8333C16.3334 54.5239 16.2105 54.2272 15.9917 54.0084C15.7729 53.7896 15.4761 53.6667 15.1667 53.6667H10.5C10.1906 53.6667 9.89388 53.7896 9.67508 54.0084C9.45629 54.2272 9.33337 54.5239 9.33337 54.8333V59.5C9.33337 59.8094 9.45629 60.1062 9.67508 60.3249C9.89388 60.5437 10.1906 60.6667 10.5 60.6667ZM11.6667 56H14V58.3333H11.6667V56Z" fill="#3F3D56"/>
<path d="M29.1667 10.5C29.4761 10.5 29.7729 10.3771 29.9917 10.1583C30.2105 9.93949 30.3334 9.64274 30.3334 9.33332V5.83332C30.3334 5.5239 30.2105 5.22716 29.9917 5.00837C29.7729 4.78957 29.4761 4.66666 29.1667 4.66666H24.5C24.1906 4.66666 23.8939 4.78957 23.6751 5.00837C23.4563 5.22716 23.3334 5.5239 23.3334 5.83332C23.3334 6.14274 23.4563 6.43949 23.6751 6.65828C23.8939 6.87707 24.1906 6.99999 24.5 6.99999H28V9.33332C28 9.64274 28.123 9.93949 28.3417 10.1583C28.5605 10.3771 28.8573 10.5 29.1667 10.5Z" fill="#3F3D56"/>
<path d="M28 19.8333H33.8334C34.1428 19.8333 34.4395 19.7104 34.6583 19.4916C34.8771 19.2728 35 18.9761 35 18.6667C35 18.3573 34.8771 18.0605 34.6583 17.8417C34.4395 17.6229 34.1428 17.5 33.8334 17.5H29.1667V14C29.1667 13.6906 29.0438 13.3938 28.825 13.1751C28.6062 12.9563 28.3095 12.8333 28 12.8333H25.6667V10.5C25.6667 10.1906 25.5438 9.89384 25.325 9.67505C25.1062 9.45626 24.8095 9.33334 24.5 9.33334C24.1906 9.33334 23.8939 9.45626 23.6751 9.67505C23.4563 9.89384 23.3334 10.1906 23.3334 10.5V14C23.3334 14.3094 23.4563 14.6062 23.6751 14.825C23.8939 15.0438 24.1906 15.1667 24.5 15.1667H26.8334V18.6667C26.8334 18.9761 26.9563 19.2728 27.1751 19.4916C27.3939 19.7104 27.6906 19.8333 28 19.8333Z" fill="#3F3D56"/>
<path d="M36.1666 4.66666H33.8333C33.5239 4.66666 33.2271 4.78957 33.0083 5.00837C32.7895 5.22716 32.6666 5.5239 32.6666 5.83332C32.6666 6.14274 32.7895 6.43949 33.0083 6.65828C33.2271 6.87707 33.5239 6.99999 33.8333 6.99999H36.1666C36.476 6.99999 36.7728 6.87707 36.9916 6.65828C37.2104 6.43949 37.3333 6.14274 37.3333 5.83332C37.3333 5.5239 37.2104 5.22716 36.9916 5.00837C36.7728 4.78957 36.476 4.66666 36.1666 4.66666Z" fill="#3F3D56"/>
<path d="M44.3333 4.66666H40.8333C40.5239 4.66666 40.2272 4.78957 40.0084 5.00837C39.7896 5.22716 39.6667 5.5239 39.6667 5.83332V9.33332H36.1667C35.8572 9.33332 35.5605 9.45624 35.3417 9.67503C35.1229 9.89382 35 10.1906 35 10.5C35 10.8094 35.1229 11.1062 35.3417 11.3249C35.5605 11.5437 35.8572 11.6667 36.1667 11.6667H40.8333C41.1428 11.6667 41.4395 11.5437 41.6583 11.3249C41.8771 11.1062 42 10.8094 42 10.5V6.99999H44.3333C44.6428 6.99999 44.9395 6.87707 45.1583 6.65828C45.3771 6.43949 45.5 6.14274 45.5 5.83332C45.5 5.5239 45.3771 5.22716 45.1583 5.00837C44.9395 4.78957 44.6428 4.66666 44.3333 4.66666Z" fill="#3F3D56"/>
<path d="M38.5 14C38.1906 14 37.8939 14.1229 37.6751 14.3417C37.4563 14.5605 37.3334 14.8572 37.3334 15.1667V18.6667C37.3334 18.9761 37.4563 19.2728 37.6751 19.4916C37.8939 19.7104 38.1906 19.8333 38.5 19.8333C38.8095 19.8333 39.1062 19.7104 39.325 19.4916C39.5438 19.2728 39.6667 18.9761 39.6667 18.6667V15.1667C39.6667 14.8572 39.5438 14.5605 39.325 14.3417C39.1062 14.1229 38.8095 14 38.5 14Z" fill="#3F3D56"/>
<path d="M44.3333 10.5V14H43.1667C42.8572 14 42.5605 14.1229 42.3417 14.3417C42.1229 14.5605 42 14.8573 42 15.1667C42 15.4761 42.1229 15.7728 42.3417 15.9916C42.5605 16.2104 42.8572 16.3333 43.1667 16.3333H45.5C45.8094 16.3333 46.1062 16.2104 46.325 15.9916C46.5438 15.7728 46.6667 15.4761 46.6667 15.1667V10.5C46.6667 10.1906 46.5438 9.89384 46.325 9.67505C46.1062 9.45626 45.8094 9.33334 45.5 9.33334C45.1906 9.33334 44.8938 9.45626 44.675 9.67505C44.4562 9.89384 44.3333 10.1906 44.3333 10.5Z" fill="#3F3D56"/>
<path d="M31.5 14C31.5 14.3094 31.6229 14.6062 31.8417 14.825C32.0605 15.0438 32.3572 15.1667 32.6667 15.1667H33.8333C34.1428 15.1667 34.4395 15.0438 34.6583 14.825C34.8771 14.6062 35 14.3094 35 14C35 13.6906 34.8771 13.3938 34.6583 13.1751C34.4395 12.9563 34.1428 12.8333 33.8333 12.8333H32.6667C32.3572 12.8333 32.0605 12.9563 31.8417 13.1751C31.6229 13.3938 31.5 13.6906 31.5 14Z" fill="#3F3D56"/>
<path d="M61.8333 56C62.1427 56 62.4395 55.8771 62.6583 55.6583C62.877 55.4395 63 55.1428 63 54.8333C63 54.5239 62.877 54.2272 62.6583 54.0084C62.4395 53.7896 62.1427 53.6667 61.8333 53.6667H57.1666V51.3333H59.5C59.8094 51.3333 60.1061 51.2104 60.3249 50.9916C60.5437 50.7728 60.6666 50.4761 60.6666 50.1667V43.1667C60.6666 42.8572 60.5437 42.5605 60.3249 42.3417C60.1061 42.1229 59.8094 42 59.5 42C59.1905 42 58.8938 42.1229 58.675 42.3417C58.4562 42.5605 58.3333 42.8572 58.3333 43.1667V49H47.8333V39.6667C47.8333 39.3572 47.7104 39.0605 47.4916 38.8417C47.2728 38.6229 46.976 38.5 46.6666 38.5H43.1666V37.3333C43.1666 37.0239 43.0437 36.7272 42.8249 36.5084C42.6061 36.2896 42.3094 36.1667 42 36.1667H36.1666V30.3333C36.1666 30.0239 36.0437 29.7272 35.8249 29.5084C35.6061 29.2896 35.3094 29.1667 35 29.1667C34.6905 29.1667 34.3938 29.2896 34.175 29.5084C33.9562 29.7272 33.8333 30.0239 33.8333 30.3333V31.5H31.5V25.6667C31.5 25.3572 31.377 25.0605 31.1583 24.8417C30.9395 24.6229 30.6427 24.5 30.3333 24.5C30.0239 24.5 29.7271 24.6229 29.5083 24.8417C29.2895 25.0605 29.1666 25.3572 29.1666 25.6667V32.6667C29.1666 32.9761 29.2895 33.2728 29.5083 33.4916C29.7271 33.7104 30.0239 33.8333 30.3333 33.8333H33.8333V37.3333C33.8333 37.6428 33.9562 37.9395 34.175 38.1583C34.3938 38.3771 34.6905 38.5 35 38.5H40.8333V39.6667C40.8333 39.9761 40.9562 40.2728 41.175 40.4916C41.3938 40.7104 41.6905 40.8333 42 40.8333H45.5V43.1667H43.1666C42.8572 43.1667 42.5605 43.2896 42.3417 43.5084C42.1229 43.7272 42 44.0239 42 44.3333C42 44.6428 42.1229 44.9395 42.3417 45.1583C42.5605 45.3771 42.8572 45.5 43.1666 45.5H45.5V63C45.5 63.3094 45.6229 63.6062 45.8417 63.825C46.0605 64.0437 46.3572 64.1667 46.6666 64.1667C46.976 64.1667 47.2728 64.0437 47.4916 63.825C47.7104 63.6062 47.8333 63.3094 47.8333 63V60.6667H50.1666V63C50.1666 63.3094 50.2895 63.6062 50.5083 63.825C50.7271 64.0437 51.0239 64.1667 51.3333 64.1667C51.6427 64.1667 51.9395 64.0437 52.1583 63.825C52.377 63.6062 52.5 63.3094 52.5 63V60.6667H54.8333V64.1667C54.8333 64.4761 54.9562 64.7728 55.175 64.9916C55.3938 65.2104 55.6905 65.3333 56 65.3333C56.3094 65.3333 56.6061 65.2104 56.8249 64.9916C57.0437 64.7728 57.1666 64.4761 57.1666 64.1667V56H61.8333ZM47.8333 51.3333H54.8333V58.3333H47.8333V51.3333Z" fill="#3F3D56"/>
<path d="M29.1667 63V59.5C29.1667 59.1906 29.0438 58.8938 28.825 58.675C28.6062 58.4562 28.3095 58.3333 28 58.3333H26.8334V53.6667H33.8334C34.1428 53.6667 34.4395 53.5437 34.6583 53.3249C34.8771 53.1062 35 52.8094 35 52.5V47.8333C35 47.5239 34.8771 47.2272 34.6583 47.0084C34.4395 46.7896 34.1428 46.6667 33.8334 46.6667H32.6667V43.1667C32.6667 42.8572 32.5438 42.5605 32.325 42.3417C32.1062 42.1229 31.8095 42 31.5 42H29.1667V37.3333C29.1667 37.0239 29.0438 36.7272 28.825 36.5084C28.6062 36.2896 28.3095 36.1667 28 36.1667C27.6906 36.1667 27.3939 36.2896 27.1751 36.5084C26.9563 36.7272 26.8334 37.0239 26.8334 37.3333V42H24.5C24.1906 42 23.8939 42.1229 23.6751 42.3417C23.4563 42.5605 23.3334 42.8572 23.3334 43.1667V47.8333C23.3334 48.1427 23.4563 48.4395 23.6751 48.6583C23.8939 48.8771 24.1906 49 24.5 49C24.8095 49 25.1062 48.8771 25.325 48.6583C25.5438 48.4395 25.6667 48.1427 25.6667 47.8333V44.3333H30.3334V46.6667H29.1667C28.8573 46.6667 28.5605 46.7896 28.3417 47.0084C28.123 47.2272 28 47.5239 28 47.8333V51.3333H25.6667C25.3573 51.3333 25.0605 51.4562 24.8417 51.675C24.623 51.8938 24.5 52.1906 24.5 52.5V58.3333C24.1906 58.3333 23.8939 58.4562 23.6751 58.675C23.4563 58.8938 23.3334 59.1906 23.3334 59.5C23.3334 59.8094 23.4563 60.1062 23.6751 60.3249C23.8939 60.5437 24.1906 60.6667 24.5 60.6667H26.8334V63H24.5C24.1906 63 23.8939 63.1229 23.6751 63.3417C23.4563 63.5605 23.3334 63.8572 23.3334 64.1667C23.3334 64.4761 23.4563 64.7728 23.6751 64.9916C23.8939 65.2104 24.1906 65.3333 24.5 65.3333H29.1667C29.4761 65.3333 29.7729 65.2104 29.9917 64.9916C30.2105 64.7728 30.3334 64.4761 30.3334 64.1667C30.3334 63.8572 30.2105 63.5605 29.9917 63.3417C29.7729 63.1229 29.4761 63 29.1667 63ZM30.3334 49H32.6667V51.3333H30.3334V49Z" fill="#3F3D56"/>
<path d="M42 56H37.3333C37.0239 56 36.7271 56.1229 36.5083 56.3417C36.2895 56.5605 36.1666 56.8572 36.1666 57.1667V63H33.8333C33.5239 63 33.2271 63.1229 33.0083 63.3417C32.7895 63.5605 32.6666 63.8572 32.6666 64.1667C32.6666 64.4761 32.7895 64.7728 33.0083 64.9916C33.2271 65.2104 33.5239 65.3333 33.8333 65.3333H39.6666C39.976 65.3333 40.2728 65.2104 40.4916 64.9916C40.7104 64.7728 40.8333 64.4761 40.8333 64.1667C40.8333 63.8572 40.7104 63.5605 40.4916 63.3417C40.2728 63.1229 39.976 63 39.6666 63H38.5V58.3333H40.8333V59.5C40.8333 59.8094 40.9562 60.1062 41.175 60.325C41.3938 60.5438 41.6905 60.6667 42 60.6667C42.3094 60.6667 42.6061 60.5438 42.8249 60.325C43.0437 60.1062 43.1666 59.8094 43.1666 59.5V57.1667C43.1666 56.8572 43.0437 56.5605 42.8249 56.3417C42.6061 56.1229 42.3094 56 42 56Z" fill="#3F3D56"/>
<path d="M33.8333 59.5V57.1667C33.8333 56.8572 33.7104 56.5605 33.4916 56.3417C33.2728 56.1229 32.9761 56 32.6667 56C32.3572 56 32.0605 56.1229 31.8417 56.3417C31.6229 56.5605 31.5 56.8572 31.5 57.1667V59.5C31.5 59.8094 31.6229 60.1062 31.8417 60.325C32.0605 60.5438 32.3572 60.6667 32.6667 60.6667C32.9761 60.6667 33.2728 60.5438 33.4916 60.325C33.7104 60.1062 33.8333 59.8094 33.8333 59.5Z" fill="#3F3D56"/>
<path d="M42 49H38.5C38.1906 49 37.8939 49.1229 37.6751 49.3417C37.4563 49.5605 37.3334 49.8572 37.3334 50.1667C37.3334 50.4761 37.4563 50.7728 37.6751 50.9916C37.8939 51.2104 38.1906 51.3333 38.5 51.3333H42C42.3095 51.3333 42.6062 51.2104 42.825 50.9916C43.0438 50.7728 43.1667 50.4761 43.1667 50.1667C43.1667 49.8572 43.0438 49.5605 42.825 49.3417C42.6062 49.1229 42.3095 49 42 49Z" fill="#3F3D56"/>
<path d="M38.5 46.6667C38.8095 46.6667 39.1062 46.5438 39.325 46.325C39.5438 46.1062 39.6667 45.8094 39.6667 45.5V42C39.6667 41.6906 39.5438 41.3938 39.325 41.1751C39.1062 40.9563 38.8095 40.8333 38.5 40.8333H35C34.6906 40.8333 34.3939 40.9563 34.1751 41.1751C33.9563 41.3938 33.8334 41.6906 33.8334 42C33.8334 42.3094 33.9563 42.6062 34.1751 42.825C34.3939 43.0438 34.6906 43.1667 35 43.1667H37.3334V45.5C37.3334 45.8094 37.4563 46.1062 37.6751 46.325C37.8939 46.5438 38.1906 46.6667 38.5 46.6667Z" fill="#3F3D56"/>
<path d="M65.3333 38.5C65.3333 38.1906 65.2104 37.8938 64.9916 37.6751C64.7728 37.4563 64.4761 37.3333 64.1667 37.3333C63.8572 37.3333 63.5605 37.4563 63.3417 37.6751C63.1229 37.8938 63 38.1906 63 38.5V42C63 42.3094 63.1229 42.6062 63.3417 42.825C63.5605 43.0438 63.8572 43.1667 64.1667 43.1667C64.4761 43.1667 64.7728 43.0438 64.9916 42.825C65.2104 42.6062 65.3333 42.3094 65.3333 42V38.5Z" fill="#3F3D56"/>
<path d="M64.1667 45.5C63.8572 45.5 63.5605 45.6229 63.3417 45.8417C63.1229 46.0605 63 46.3572 63 46.6667V51.3333C63 51.6428 63.1229 51.9395 63.3417 52.1583C63.5605 52.3771 63.8572 52.5 64.1667 52.5C64.4761 52.5 64.7728 52.3771 64.9916 52.1583C65.2104 51.9395 65.3333 51.6428 65.3333 51.3333V46.6667C65.3333 46.3572 65.2104 46.0605 64.9916 45.8417C64.7728 45.6229 64.4761 45.5 64.1667 45.5Z" fill="#3F3D56"/>
<path d="M51.3333 46.6667H54.8333C55.1427 46.6667 55.4395 46.5438 55.6583 46.325C55.877 46.1062 56 45.8094 56 45.5C56 45.1906 55.877 44.8938 55.6583 44.6751C55.4395 44.4563 55.1427 44.3333 54.8333 44.3333H52.5V42C52.5 41.6906 52.377 41.3938 52.1583 41.1751C51.9395 40.9563 51.6427 40.8333 51.3333 40.8333C51.0239 40.8333 50.7271 40.9563 50.5083 41.1751C50.2895 41.3938 50.1666 41.6906 50.1666 42V45.5C50.1666 45.8094 50.2895 46.1062 50.5083 46.325C50.7271 46.5438 51.0239 46.6667 51.3333 46.6667Z" fill="#3F3D56"/>
<path d="M15.1666 29.1667C15.1666 28.8573 15.0437 28.5605 14.8249 28.3417C14.6061 28.1229 14.3094 28 14 28H11.6666V24.5C11.6666 24.1906 11.5437 23.8938 11.3249 23.6751C11.1061 23.4563 10.8094 23.3333 10.5 23.3333H5.83329C5.52387 23.3333 5.22713 23.4563 5.00833 23.6751C4.78954 23.8938 4.66663 24.1906 4.66663 24.5C4.66663 24.8094 4.78954 25.1062 5.00833 25.325C5.22713 25.5438 5.52387 25.6667 5.83329 25.6667H9.33329V29.1667C9.33329 29.4761 9.45621 29.7728 9.675 29.9916C9.89379 30.2104 10.1905 30.3333 10.5 30.3333H14C14.3094 30.3333 14.6061 30.2104 14.8249 29.9916C15.0437 29.7728 15.1666 29.4761 15.1666 29.1667Z" fill="#3F3D56"/>
<path d="M17.5 25.6667H23.3334C23.6428 25.6667 23.9395 25.5438 24.1583 25.325C24.3771 25.1062 24.5 24.8094 24.5 24.5V18.6667C24.5 18.3572 24.3771 18.0605 24.1583 17.8417C23.9395 17.6229 23.6428 17.5 23.3334 17.5C23.024 17.5 22.7272 17.6229 22.5084 17.8417C22.2896 18.0605 22.1667 18.3572 22.1667 18.6667V23.3333H17.5C17.1906 23.3333 16.8939 23.4562 16.6751 23.675C16.4563 23.8938 16.3334 24.1906 16.3334 24.5C16.3334 24.8094 16.4563 25.1062 16.6751 25.325C16.8939 25.5438 17.1906 25.6667 17.5 25.6667Z" fill="#3F3D56"/>
<path d="M4.66663 31.5V36.1667C4.66663 36.4761 4.78954 36.7728 5.00833 36.9916C5.22713 37.2104 5.52387 37.3333 5.83329 37.3333C6.14271 37.3333 6.43946 37.2104 6.65825 36.9916C6.87704 36.7728 6.99996 36.4761 6.99996 36.1667V31.5C6.99996 31.1906 6.87704 30.8938 6.65825 30.6751C6.43946 30.4563 6.14271 30.3333 5.83329 30.3333C5.52387 30.3333 5.22713 30.4563 5.00833 30.6751C4.78954 30.8938 4.66663 31.1906 4.66663 31.5Z" fill="#3F3D56"/>
<path d="M10.5 32.6667C10.1906 32.6667 9.89388 32.7896 9.67508 33.0084C9.45629 33.2272 9.33337 33.5239 9.33337 33.8333C9.33337 34.1427 9.45629 34.4395 9.67508 34.6583C9.89388 34.8771 10.1906 35 10.5 35H12.8334C13.1428 35 13.4395 34.8771 13.6583 34.6583C13.8771 34.4395 14 34.1427 14 33.8333C14 33.5239 13.8771 33.2272 13.6583 33.0084C13.4395 32.7896 13.1428 32.6667 12.8334 32.6667H10.5Z" fill="#3F3D56"/>
<path d="M24.5 37.3333V35H25.6666C25.976 35 26.2728 34.8771 26.4916 34.6583C26.7104 34.4395 26.8333 34.1428 26.8333 33.8333C26.8333 33.5239 26.7104 33.2272 26.4916 33.0084C26.2728 32.7896 25.976 32.6667 25.6666 32.6667H24.5V29.1667C24.5 28.8572 24.377 28.5605 24.1583 28.3417C23.9395 28.1229 23.6427 28 23.3333 28H18.6666C18.3572 28 18.0605 28.1229 17.8417 28.3417C17.6229 28.5605 17.5 28.8572 17.5 29.1667C17.5 29.4761 17.6229 29.7728 17.8417 29.9916C18.0605 30.2104 18.3572 30.3333 18.6666 30.3333H22.1666V32.6667H17.5C17.1905 32.6667 16.8938 32.7896 16.675 33.0084C16.4562 33.2272 16.3333 33.5239 16.3333 33.8333V37.3333H15.1666C14.8572 37.3333 14.5605 37.4562 14.3417 37.675C14.1229 37.8938 14 38.1906 14 38.5V44.3333H11.6666V40.8333C11.6666 40.5239 11.5437 40.2272 11.3249 40.0084C11.1061 39.7896 10.8094 39.6667 10.5 39.6667H5.83329C5.52387 39.6667 5.22713 39.7896 5.00833 40.0084C4.78954 40.2272 4.66663 40.5239 4.66663 40.8333C4.66663 41.1428 4.78954 41.4395 5.00833 41.6583C5.22713 41.8771 5.52387 42 5.83329 42H9.33329V44.3333H5.83329C5.52387 44.3333 5.22713 44.4562 5.00833 44.675C4.78954 44.8938 4.66663 45.1906 4.66663 45.5C4.66663 45.8094 4.78954 46.1062 5.00833 46.325C5.22713 46.5438 5.52387 46.6667 5.83329 46.6667H19.8333C20.1427 46.6667 20.4395 46.5438 20.6583 46.325C20.877 46.1062 21 45.8094 21 45.5C21 45.1906 20.877 44.8938 20.6583 44.675C20.4395 44.4562 20.1427 44.3333 19.8333 44.3333H16.3333V39.6667H18.6666V40.8333C18.6666 41.1428 18.7895 41.4395 19.0083 41.6583C19.2271 41.8771 19.5239 42 19.8333 42C20.1427 42 20.4395 41.8771 20.6583 41.6583C20.877 41.4395 21 41.1428 21 40.8333V38.5C21 38.1906 20.877 37.8938 20.6583 37.675C20.4395 37.4562 20.1427 37.3333 19.8333 37.3333H18.6666V35H22.1666V37.3333C22.1666 37.6428 22.2895 37.9395 22.5083 38.1583C22.7271 38.3771 23.0239 38.5 23.3333 38.5C23.6427 38.5 23.9395 38.3771 24.1583 38.1583C24.377 37.9395 24.5 37.6428 24.5 37.3333Z" fill="#3F3D56"/>
<path d="M36.1667 24.5H38.5C38.8094 24.5 39.1062 24.3771 39.325 24.1583C39.5438 23.9395 39.6667 23.6427 39.6667 23.3333C39.6667 23.0239 39.5438 22.7272 39.325 22.5084C39.1062 22.2896 38.8094 22.1667 38.5 22.1667H36.1667C35.8572 22.1667 35.5605 22.2896 35.3417 22.5084C35.1229 22.7272 35 23.0239 35 23.3333C35 23.6427 35.1229 23.9395 35.3417 24.1583C35.5605 24.3771 35.8572 24.5 36.1667 24.5Z" fill="#3F3D56"/>
<path d="M40.8333 29.1667H43.1666C43.476 29.1667 43.7728 29.0438 43.9916 28.825C44.2104 28.6062 44.3333 28.3094 44.3333 28C44.3333 27.6906 44.2104 27.3938 43.9916 27.1751C43.7728 26.9563 43.476 26.8333 43.1666 26.8333H40.8333C40.5239 26.8333 40.2271 26.9563 40.0083 27.1751C39.7895 27.3938 39.6666 27.6906 39.6666 28C39.6666 28.3094 39.7895 28.6062 40.0083 28.825C40.2271 29.0438 40.5239 29.1667 40.8333 29.1667Z" fill="#3F3D56"/>
<path d="M49 25.6667V30.3333C49 30.6428 49.1229 30.9395 49.3417 31.1583C49.5605 31.3771 49.8572 31.5 50.1667 31.5H52.5C52.8094 31.5 53.1062 31.3771 53.325 31.1583C53.5438 30.9395 53.6667 30.6428 53.6667 30.3333C53.6667 30.0239 53.5438 29.7272 53.325 29.5084C53.1062 29.2896 52.8094 29.1667 52.5 29.1667H51.3333V25.6667H56C56.3094 25.6667 56.6062 25.5438 56.825 25.325C57.0438 25.1062 57.1667 24.8094 57.1667 24.5C57.1667 24.1906 57.0438 23.8938 56.825 23.675C56.6062 23.4562 56.3094 23.3333 56 23.3333H47.8333V22.1667C47.8333 21.8572 47.7104 21.5605 47.4916 21.3417C47.2728 21.1229 46.9761 21 46.6667 21H44.3333V18.6667C44.3333 18.3572 44.2104 18.0605 43.9916 17.8417C43.7728 17.6229 43.4761 17.5 43.1667 17.5C42.8572 17.5 42.5605 17.6229 42.3417 17.8417C42.1229 18.0605 42 18.3572 42 18.6667V22.1667C42 22.4761 42.1229 22.7728 42.3417 22.9916C42.5605 23.2104 42.8572 23.3333 43.1667 23.3333H45.5V24.5C45.5 24.8094 45.6229 25.1062 45.8417 25.325C46.0605 25.5438 46.3572 25.6667 46.6667 25.6667H49Z" fill="#3F3D56"/>
<path d="M39.6667 33.8333H45.5C45.8094 33.8333 46.1062 33.7104 46.325 33.4916C46.5438 33.2728 46.6667 32.9761 46.6667 32.6667C46.6667 32.3572 46.5438 32.0605 46.325 31.8417C46.1062 31.6229 45.8094 31.5 45.5 31.5H39.6667C39.3572 31.5 39.0605 31.6229 38.8417 31.8417C38.6229 32.0605 38.5 32.3572 38.5 32.6667C38.5 32.9761 38.6229 33.2728 38.8417 33.4916C39.0605 33.7104 39.3572 33.8333 39.6667 33.8333Z" fill="#3F3D56"/>
<path d="M65.3333 24.5C65.3333 24.1906 65.2104 23.8938 64.9916 23.6751C64.7728 23.4563 64.476 23.3333 64.1666 23.3333H60.6666C60.3572 23.3333 60.0605 23.4563 59.8417 23.6751C59.6229 23.8938 59.5 24.1906 59.5 24.5C59.5 24.8094 59.6229 25.1062 59.8417 25.325C60.0605 25.5438 60.3572 25.6667 60.6666 25.6667H63V28H59.5C59.1905 28 58.8938 28.1229 58.675 28.3417C58.4562 28.5605 58.3333 28.8573 58.3333 29.1667C58.3333 29.4761 58.4562 29.7728 58.675 29.9916C58.8938 30.2104 59.1905 30.3333 59.5 30.3333H63V32.6667H58.3333C58.0239 32.6667 57.7271 32.7896 57.5083 33.0084C57.2895 33.2272 57.1666 33.5239 57.1666 33.8333C57.1666 34.1428 57.2895 34.4395 57.5083 34.6583C57.7271 34.8771 58.0239 35 58.3333 35H64.1666C64.476 35 64.7728 34.8771 64.9916 34.6583C65.2104 34.4395 65.3333 34.1428 65.3333 33.8333V24.5Z" fill="#3F3D56"/>
<path d="M49 36.1667H50.1667V37.3333C50.1667 37.6428 50.2896 37.9395 50.5084 38.1583C50.7272 38.3771 51.024 38.5 51.3334 38.5C51.6428 38.5 51.9395 38.3771 52.1583 38.1583C52.3771 37.9395 52.5 37.6428 52.5 37.3333V35C52.5 34.6906 52.3771 34.3938 52.1583 34.1751C51.9395 33.9563 51.6428 33.8333 51.3334 33.8333H49C48.6906 33.8333 48.3939 33.9563 48.1751 34.1751C47.9563 34.3938 47.8334 34.6906 47.8334 35C47.8334 35.3094 47.9563 35.6062 48.1751 35.825C48.3939 36.0438 48.6906 36.1667 49 36.1667Z" fill="#3F3D56"/>
<path d="M57.1667 40.8333V39.6667H59.5C59.8095 39.6667 60.1062 39.5438 60.325 39.325C60.5438 39.1062 60.6667 38.8094 60.6667 38.5C60.6667 38.1906 60.5438 37.8938 60.325 37.6751C60.1062 37.4563 59.8095 37.3333 59.5 37.3333H56C55.6906 37.3333 55.3939 37.4563 55.1751 37.6751C54.9563 37.8938 54.8334 38.1906 54.8334 38.5V40.8333C54.8334 41.1428 54.9563 41.4395 55.1751 41.6583C55.3939 41.8771 55.6906 42 56 42C56.3095 42 56.6062 41.8771 56.825 41.6583C57.0438 41.4395 57.1667 41.1428 57.1667 40.8333Z" fill="#3F3D56"/>
<path d="M61.8333 64.1667V60.6667H64.1667C64.4761 60.6667 64.7728 60.5438 64.9916 60.325C65.2104 60.1062 65.3333 59.8094 65.3333 59.5C65.3333 59.1906 65.2104 58.8938 64.9916 58.6751C64.7728 58.4563 64.4761 58.3333 64.1667 58.3333H60.6667C60.3572 58.3333 60.0605 58.4563 59.8417 58.6751C59.6229 58.8938 59.5 59.1906 59.5 59.5V64.1667C59.5 64.4761 59.6229 64.7728 59.8417 64.9916C60.0605 65.2104 60.3572 65.3333 60.6667 65.3333C60.9761 65.3333 61.2728 65.2104 61.4916 64.9916C61.7104 64.7728 61.8333 64.4761 61.8333 64.1667Z" fill="#3F3D56"/>
<path d="M51.3333 56C51.9776 56 52.5 55.4777 52.5 54.8333C52.5 54.189 51.9776 53.6667 51.3333 53.6667C50.689 53.6667 50.1666 54.189 50.1666 54.8333C50.1666 55.4777 50.689 56 51.3333 56Z" fill="#3F3D56"/>
</svg>
