<svg width="53" height="52" viewBox="0 0 53 52" fill="none" xmlns="http://www.w3.org/2000/svg">
<rect x="0.571411" width="52" height="52" rx="26" fill="#FBF49E"/>
<path d="M27 35.2188C27.8629 35.2188 28.5625 34.5192 28.5625 33.6562C28.5625 32.7933 27.8629 32.0938 27 32.0938C26.1371 32.0938 25.4375 32.7933 25.4375 33.6562C25.4375 34.5192 26.1371 35.2188 27 35.2188Z" fill="#3F3D56"/>
<path d="M27 10C18.1573 10 11 17.1561 11 26C11 34.8428 18.1561 42 27 42C35.8428 42 43 34.8439 43 26C43 17.1573 35.8439 10 27 10ZM27 39.5C19.5389 39.5 13.5 33.4621 13.5 26C13.5 18.5389 19.5379 12.5 27 12.5C34.4611 12.5 40.5 18.5379 40.5 26C40.5 33.4611 34.4621 39.5 27 39.5Z" fill="#3F3D56"/>
<path d="M27 18.0312C24.243 18.0312 22 20.2743 22 23.0312C22 23.7216 22.5596 24.2812 23.25 24.2812C23.9404 24.2812 24.5 23.7216 24.5 23.0312C24.5 21.6528 25.6215 20.5312 27 20.5312C28.3785 20.5312 29.5 21.6528 29.5 23.0312C29.5 24.4097 28.3785 25.5312 27 25.5312C26.3096 25.5312 25.75 26.0909 25.75 26.7812V29.9062C25.75 30.5966 26.3096 31.1562 27 31.1562C27.6904 31.1562 28.25 30.5966 28.25 29.9062V27.8731C30.4041 27.3166 32 25.3568 32 23.0312C32 20.2743 29.757 18.0312 27 18.0312Z" fill="#3F3D56"/>
</svg>
