<svg width="44" height="44" viewBox="0 0 44 44" fill="none" xmlns="http://www.w3.org/2000/svg">
<rect width="44" height="44" rx="22" fill="#FFEE00"/>
<path d="M26.6758 10H16.3242C12.2856 10 9 13.2856 9 17.3242V27.6758C9 31.7144 12.2856 35 16.3242 35H26.6758C30.7144 35 34 31.7144 34 27.6758V17.3242C34 13.2856 30.7144 10 26.6758 10ZM33.0234 27.6758C33.0234 31.1759 30.1759 34.0234 26.6758 34.0234H16.3242C12.8241 34.0234 9.97656 31.1759 9.97656 27.6758V17.3242C9.97656 13.8241 12.8241 10.9766 16.3242 10.9766H26.6758C30.1759 10.9766 33.0234 13.8241 33.0234 17.3242V27.6758Z" fill="#3F3D56"/>
<path d="M26.6758 12.1484H16.3242C13.4703 12.1484 11.1484 14.4703 11.1484 17.3242V27.6758C11.1484 30.5297 13.4703 32.8516 16.3242 32.8516H19.3027C19.5724 32.8516 19.791 32.633 19.791 32.3633C19.791 32.0936 19.5724 31.875 19.3027 31.875H16.3242C14.0088 31.875 12.125 29.9912 12.125 27.6758V17.3242C12.125 15.0088 14.0088 13.125 16.3242 13.125H26.6758C28.9912 13.125 30.875 15.0088 30.875 17.3242V27.6758C30.875 29.9912 28.9912 31.875 26.6758 31.875H23.7298C23.4602 31.875 23.2416 32.0936 23.2416 32.3633C23.2416 32.633 23.4602 32.8516 23.7298 32.8516H26.6758C29.5297 32.8516 31.8516 30.5297 31.8516 27.6758V17.3242C31.8516 14.4703 29.5297 12.1484 26.6758 12.1484Z" fill="#3F3D56"/>
<path d="M21.8452 32.0181C21.7544 31.9272 21.6284 31.875 21.5 31.875C21.3716 31.875 21.2456 31.9272 21.1548 32.0181C21.064 32.1089 21.0117 32.2349 21.0117 32.3633C21.0117 32.4917 21.064 32.6177 21.1548 32.7085C21.2456 32.7993 21.3716 32.8516 21.5 32.8516C21.6284 32.8516 21.7544 32.7993 21.8452 32.7085C21.936 32.6177 21.9883 32.4917 21.9883 32.3633C21.9883 32.2349 21.936 32.1089 21.8452 32.0181Z" fill="#3F3D56"/>
<path d="M17.5854 17.603C17.401 17.4063 17.0921 17.3962 16.8953 17.5805L16.8736 17.6009C16.6775 17.7859 16.6685 18.095 16.8536 18.2911C16.9497 18.3929 17.0791 18.4443 17.2088 18.4443C17.3291 18.4443 17.4495 18.4002 17.5438 18.3111L17.5629 18.2932C17.7597 18.1088 17.7698 17.7998 17.5854 17.603Z" fill="#3F3D56"/>
<path d="M21.5 15.7617C20.4275 15.7617 19.3602 16.0201 18.4132 16.5088C18.1736 16.6325 18.0796 16.9271 18.2033 17.1667C18.3271 17.4063 18.6216 17.5002 18.8612 17.3766C19.6817 16.953 20.5696 16.7383 21.5 16.7383C24.677 16.7383 27.2617 19.323 27.2617 22.5C27.2617 25.677 24.677 28.2617 21.5 28.2617C18.323 28.2617 15.7383 25.677 15.7383 22.5C15.7383 21.503 15.9968 20.5207 16.486 19.6593C16.6191 19.4248 16.537 19.1268 16.3025 18.9936C16.068 18.8604 15.77 18.9425 15.6368 19.1771C15.0643 20.1852 14.7617 21.3342 14.7617 22.5C14.7617 26.2155 17.7845 29.2383 21.5 29.2383C25.2155 29.2383 28.2383 26.2155 28.2383 22.5C28.2383 18.7845 25.2155 15.7617 21.5 15.7617Z" fill="#3F3D56"/>
<path d="M21.5 18.1055C19.0769 18.1055 17.1055 20.0769 17.1055 22.5C17.1055 24.9231 19.0769 26.8945 21.5 26.8945C23.9231 26.8945 25.8945 24.9231 25.8945 22.5C25.8945 20.0769 23.9231 18.1055 21.5 18.1055ZM21.5 25.918C19.6153 25.918 18.082 24.3847 18.082 22.5C18.082 20.6153 19.6153 19.082 21.5 19.082C23.3847 19.082 24.918 20.6153 24.918 22.5C24.918 24.3847 23.3847 25.918 21.5 25.918Z" fill="#3F3D56"/>
<path d="M27.9087 14.2358C26.8856 14.2358 26.0532 15.0682 26.0532 16.0913C26.0532 17.1144 26.8856 17.9468 27.9087 17.9468C28.9318 17.9468 29.7642 17.1144 29.7642 16.0913C29.7642 15.0682 28.9318 14.2358 27.9087 14.2358ZM27.9087 16.9702C27.4241 16.9702 27.0298 16.5759 27.0298 16.0913C27.0298 15.6067 27.4241 15.2124 27.9087 15.2124C28.3933 15.2124 28.7876 15.6067 28.7876 16.0913C28.7876 16.5759 28.3933 16.9702 27.9087 16.9702Z" fill="#3F3D56"/>
</svg>
