<svg width="53" height="52" viewBox="0 0 53 52" fill="none" xmlns="http://www.w3.org/2000/svg">
<rect x="0.523804" width="52" height="52" rx="26" fill="#FFF680"/>
<path d="M27.0729 10C27.0643 10.0086 27.0472 10.0086 27.0214 10.0086C18.3448 10.0086 11.2886 17.0648 11.2886 25.7414C11.2886 29.2824 12.4975 32.7204 14.7095 35.4898L12.4203 40.8055C12.2317 41.2428 12.4375 41.7486 12.8662 41.9287C13.0205 41.9972 13.192 42.0144 13.3549 41.9887L21.7486 40.514C23.429 41.1227 25.1952 41.4314 26.9786 41.4228C35.6552 41.4228 42.7114 34.3666 42.7114 25.69C42.7286 17.0391 35.7238 10.0086 27.0729 10ZM26.9871 39.7166C25.3324 39.7166 23.6948 39.4165 22.143 38.8335C21.9972 38.7735 21.8429 38.7649 21.6886 38.7907L14.6238 40.0253L16.4929 35.6784C16.6215 35.3783 16.57 35.0268 16.3557 34.7781C15.344 33.6035 14.5381 32.266 13.9722 30.8171C13.3377 29.1966 13.0119 27.4733 13.0119 25.7328C13.0119 17.9993 19.3051 11.7148 27.03 11.7148C34.7378 11.6976 40.9967 17.9307 41.0052 25.6385C41.0052 25.6557 41.0052 25.6728 41.0052 25.69C41.0052 33.4321 34.7121 39.7166 26.9871 39.7166Z" fill="#3F3D56"/>
<path d="M26.3184 22.5777H21.6886C21.217 22.5777 20.8312 22.9635 20.8312 23.4351C20.8312 23.9066 21.217 24.2924 21.6886 24.2924H26.3184C26.7899 24.2924 27.1758 23.9066 27.1758 23.4351C27.1758 22.9635 26.7899 22.5777 26.3184 22.5777Z" fill="#3F3D56"/>
<path d="M32.32 26.8646H21.6886C21.217 26.8646 20.8312 27.2504 20.8312 27.7219C20.8312 28.1935 21.217 28.5793 21.6886 28.5793H32.32C32.7916 28.5793 33.1774 28.1935 33.1774 27.7219C33.1774 27.2504 32.7916 26.8646 32.32 26.8646Z" fill="#3F3D56"/>
</svg>
