<svg width="71" height="71" viewBox="0 0 71 71" fill="none" xmlns="http://www.w3.org/2000/svg">
<path d="M50.1549 23.8684L49.3997 21.383C48.4405 18.5597 45.3741 17.0486 42.5508 18.0079C40.9626 18.5475 39.7153 19.7948 39.1757 21.383L38.4205 23.8684C37.7851 25.9645 37.6517 28.1807 38.0312 30.3378C38.3773 32.154 39.5303 33.7143 41.1647 34.5782L40.319 53.4842C40.2058 54.5394 40.5481 55.5929 41.26 56.3801C42.7911 58.0548 45.39 58.1713 47.0647 56.6402C47.1553 56.5574 47.242 56.4707 47.3248 56.3801C48.0208 55.6153 48.3625 54.5927 48.2658 53.563L47.4154 34.5759C49.0476 33.7115 50.1987 32.1522 50.5442 30.3378C50.9237 28.1807 50.7903 25.9645 50.1549 23.8684ZM48.227 29.9285C47.9723 31.2333 47.0425 32.3038 45.7862 32.7386C45.3094 32.9178 45.0023 33.3836 45.0252 33.8925L45.9192 53.7488C45.9603 54.1383 45.8318 54.5266 45.5663 54.8145C44.858 55.5157 43.7174 55.5157 43.0091 54.8145C42.7303 54.5034 42.6037 54.0847 42.6633 53.6712L43.5502 33.8925C43.5731 33.3836 43.266 32.9178 42.7891 32.7386C41.5329 32.3038 40.6031 31.2333 40.3484 29.9285C40.0338 28.1376 40.1446 26.2978 40.6719 24.5577L41.427 22.0711C42.0113 20.4912 43.7657 19.6842 45.3457 20.2685C46.181 20.5774 46.8394 21.236 47.1483 22.0711L47.9035 24.5577C48.4302 26.298 48.541 28.1376 48.227 29.9285Z" fill="#3F3D56"/>
<path d="M31.937 17.726C31.2874 17.726 30.7607 18.2527 30.7607 18.9023V29.0016L27.5766 32.1857C27.3411 32.4204 27.2158 32.744 27.232 33.0762L28.2612 53.6606C28.2858 54.1045 28.1246 54.5387 27.8166 54.8592C27.1727 55.5088 26.1241 55.5135 25.4744 54.8695C25.4708 54.8662 25.4674 54.8626 25.4641 54.8592C25.1559 54.5387 24.9949 54.1045 25.0194 53.6606L26.0557 33.0762C26.0722 32.7442 25.9474 32.4207 25.7123 32.1857L22.527 29.0016V18.9023C22.527 18.2527 22.0003 17.726 21.3507 17.726C20.7011 17.726 20.1744 18.2527 20.1744 18.9023V29.4886C20.1744 29.8006 20.2985 30.0997 20.5191 30.3202L23.6785 33.4808L22.6752 53.5465C22.5684 55.7383 24.2587 57.6018 26.4505 57.7086C28.6423 57.8153 30.5058 56.125 30.6125 53.9332C30.6189 53.8044 30.6189 53.6755 30.6125 53.5467L29.6092 33.4809L32.7686 30.3203C32.9892 30.0998 33.1133 29.8007 33.1133 29.4887V18.9024C33.1133 18.2527 32.5866 17.726 31.937 17.726Z" fill="#3F3D56"/>
<path d="M24.8795 17.726C24.2299 17.726 23.7032 18.2527 23.7032 18.9023V28.3123C23.7032 28.9619 24.2299 29.4886 24.8795 29.4886C25.5291 29.4886 26.0557 28.9619 26.0557 28.3123V18.9023C26.0557 18.2527 25.5291 17.726 24.8795 17.726Z" fill="#3F3D56"/>
<path d="M28.4082 17.726C27.7586 17.726 27.232 18.2527 27.232 18.9023V28.3123C27.232 28.9619 27.7586 29.4886 28.4082 29.4886C29.0578 29.4886 29.5845 28.9619 29.5845 28.3123V18.9023C29.5845 18.2527 29.0578 17.726 28.4082 17.726Z" fill="#3F3D56"/>
<path d="M35.4658 0.0821877C15.977 0.0821877 0.178085 15.8811 0.178085 35.3699C0.178085 54.8587 15.977 70.6575 35.4658 70.6575C54.9545 70.6575 70.7534 54.8587 70.7534 35.3699C70.7314 15.8902 54.9454 0.104242 35.4658 0.0821877ZM35.4658 68.305C17.2761 68.305 2.5306 53.5595 2.5306 35.3699C2.5306 17.1802 17.2761 2.4347 35.4658 2.4347C53.6554 2.4347 68.4009 17.1802 68.4009 35.3699C68.3802 53.5508 53.6467 68.2843 35.4658 68.305Z" fill="#3F3D56"/>
<path d="M39.284 57.45C39.221 56.8035 38.6456 56.3305 37.999 56.3935C37.9838 56.395 37.9687 56.3968 37.9535 56.3988L37.9582 56.3976C36.3022 56.59 34.6293 56.59 32.9733 56.3976C32.3278 56.3219 31.7433 56.7838 31.6676 57.4292C31.5919 58.0747 32.0537 58.6592 32.6992 58.7349C34.5358 58.9494 36.391 58.9494 38.2276 58.7349C38.8741 58.6719 39.3471 58.0966 39.284 57.45Z" fill="#3F3D56"/>
<path d="M53.4624 20.2126C53.045 19.7149 52.3031 19.6498 51.8054 20.0674C51.8038 20.0687 51.8022 20.0702 51.8004 20.0715C51.3039 20.4902 51.2406 21.2322 51.6592 21.7288C58.7513 30.1479 58.2088 42.5969 50.4112 50.3671C49.951 50.8257 49.9497 51.5708 50.4083 52.031C50.8669 52.4912 51.6119 52.4925 52.0721 52.0339C60.7377 43.4012 61.342 29.5681 53.4624 20.2126Z" fill="#3F3D56"/>
<path d="M27.5848 15.63C27.5839 15.63 27.583 15.6298 27.5821 15.6298C27.5807 15.6298 27.5793 15.63 27.5778 15.63H27.5848Z" fill="#3F3D56"/>
<path d="M41.0141 12.5023C36.4172 11.4006 31.596 11.6967 27.1684 13.3527C26.5603 13.5813 26.2529 14.2597 26.4815 14.8677C26.6538 15.326 27.092 15.6293 27.5815 15.6298C27.7222 15.629 27.8615 15.6033 27.993 15.5535C31.9802 14.0624 36.3218 13.7961 40.4613 14.7889C41.0928 14.9415 41.7284 14.5535 41.881 13.922C42.0337 13.2905 41.6456 12.6549 41.0141 12.5023Z" fill="#3F3D56"/>
<path d="M20.4673 50.3083C16.502 46.3498 14.2796 40.973 14.2932 35.3699C14.2815 30.8933 15.6995 26.53 18.3406 22.9157C18.731 22.3964 18.6265 21.659 18.1072 21.2686C17.5878 20.8782 16.8505 20.9828 16.4601 21.5021C16.4532 21.5114 16.4464 21.5206 16.4398 21.53C9.63915 30.8795 10.6398 43.7847 18.8006 51.9739C19.2605 52.4341 20.0065 52.4344 20.4667 51.9745C20.9269 51.5146 20.9272 50.7685 20.4673 50.3083Z" fill="#3F3D56"/>
</svg>
