<svg width="60" height="70" viewBox="0 0 60 70" fill="none" xmlns="http://www.w3.org/2000/svg">
<path d="M53.1818 70H20.4545C16.6963 70 13.6363 66.7304 13.6363 62.7083V18.9583C13.6363 14.9362 16.6963 11.6667 20.4545 11.6667H53.1818C56.94 11.6667 60 14.9362 60 18.9583V62.7083C60 66.7304 56.94 70 53.1818 70ZM20.4545 14.5833C18.1991 14.5833 16.3636 16.5462 16.3636 18.9583V62.7083C16.3636 65.1204 18.1991 67.0833 20.4545 67.0833H53.1818C55.4373 67.0833 57.2727 65.1204 57.2727 62.7083V18.9583C57.2727 16.5462 55.4373 14.5833 53.1818 14.5833H20.4545Z" fill="#3F3D56"/>
<path d="M9.54546 61.25H6.81819C3.06 61.25 0 57.9804 0 53.9583V7.29166C0 3.26958 3.06 0 6.81819 0H39.5455C43.3037 0 46.3637 3.26958 46.3637 7.29166C46.3637 8.09666 45.7528 8.75 45 8.75C44.2473 8.75 43.6364 8.09666 43.6364 7.29166C43.6364 4.87958 41.8009 2.91667 39.5455 2.91667H6.81819C4.56273 2.91667 2.72727 4.87958 2.72727 7.29166V53.9583C2.72727 56.3704 4.56273 58.3333 6.81819 58.3333H9.54546C10.2982 58.3333 10.9091 58.9866 10.9091 59.7916C10.9091 60.5966 10.2982 61.25 9.54546 61.25Z" fill="#3F3D56"/>
<path d="M47.7272 48.9493H25.909C25.1563 48.9493 24.5454 48.438 24.5454 47.808C24.5454 47.178 25.1563 46.6667 25.909 46.6667H47.7272C48.4799 46.6667 49.0908 47.178 49.0908 47.808C49.0908 48.438 48.4799 48.9493 47.7272 48.9493Z" fill="#3F3D56"/>
<path d="M47.7272 60.6159H25.909C25.1563 60.6159 24.5454 60.1046 24.5454 59.4746C24.5454 58.8446 25.1563 58.3333 25.909 58.3333H47.7272C48.4799 58.3333 49.0908 58.8446 49.0908 59.4746C49.0908 60.1046 48.4799 60.6159 47.7272 60.6159Z" fill="#3F3D56"/>
<path d="M47.7272 37.2826H25.909C25.1563 37.2826 24.5454 36.7713 24.5454 36.1413C24.5454 35.5113 25.1563 35 25.909 35H47.7272C48.4799 35 49.0908 35.5113 49.0908 36.1413C49.0908 36.7713 48.4799 37.2826 47.7272 37.2826Z" fill="#3F3D56"/>
<path d="M47.7272 25.6159H25.909C25.1563 25.6159 24.5454 25.1046 24.5454 24.4746C24.5454 23.8446 25.1563 23.3333 25.909 23.3333H47.7272C48.4799 23.3333 49.0908 23.8446 49.0908 24.4746C49.0908 25.1046 48.4799 25.6159 47.7272 25.6159Z" fill="#3F3D56"/>
</svg>
