<svg width="58" height="70" viewBox="0 0 58 70" fill="none" xmlns="http://www.w3.org/2000/svg">
<path d="M48.672 20.7812H28.9843C28.2292 20.7812 27.6171 21.3933 27.6171 22.1484C27.6171 22.9035 28.2292 23.5156 28.9843 23.5156H48.672C49.4271 23.5156 50.0392 22.9035 50.0392 22.1484C50.0392 21.3933 49.4271 20.7812 48.672 20.7812Z" fill="#3F3D56"/>
<path d="M43.888 27.7444C43.6337 27.4901 43.281 27.3438 42.9214 27.3438C42.5618 27.3438 42.2091 27.4901 41.9548 27.7444C41.7005 27.9987 41.5542 28.3515 41.5542 28.711C41.5542 29.0706 41.7005 29.4233 41.9548 29.6776C42.2091 29.9319 42.5618 30.0782 42.9214 30.0782C43.281 30.0782 43.6337 29.9319 43.888 29.6776C44.1423 29.4233 44.2886 29.0706 44.2886 28.711C44.2886 28.3515 44.1423 27.9987 43.888 27.7444Z" fill="#3F3D56"/>
<path d="M29.9496 6.27961C29.6953 6.02532 29.3426 5.87903 28.983 5.87903C28.6235 5.87903 28.2707 6.02532 28.0164 6.27961C27.7621 6.53391 27.6158 6.88664 27.6158 7.24621C27.6158 7.60578 27.7621 7.95852 28.0164 8.21281C28.2707 8.46711 28.6235 8.6134 28.983 8.6134C29.3426 8.6134 29.6953 8.46711 29.9496 8.21281C30.2039 7.95852 30.3502 7.60578 30.3502 7.24621C30.3502 6.88664 30.2039 6.53391 29.9496 6.27961Z" fill="#3F3D56"/>
<path d="M37.1705 27.3437H28.9843C28.2292 27.3437 27.6171 27.9558 27.6171 28.7109C27.6171 29.466 28.2292 30.0781 28.9843 30.0781H37.1705C37.9256 30.0781 38.5377 29.466 38.5377 28.7109C38.5377 27.9558 37.9256 27.3437 37.1705 27.3437Z" fill="#3F3D56"/>
<path d="M48.672 35.5468H28.9843C28.2292 35.5468 27.6171 36.1589 27.6171 36.914C27.6171 37.6691 28.2292 38.2812 28.9843 38.2812H48.672C49.4271 38.2812 50.0392 37.6691 50.0392 36.914C50.0392 36.1589 49.4271 35.5468 48.672 35.5468Z" fill="#3F3D56"/>
<path d="M43.888 42.51C43.6337 42.2557 43.281 42.1094 42.9214 42.1094C42.5618 42.1094 42.2091 42.2557 41.9548 42.51C41.7005 42.7643 41.5542 43.1171 41.5542 43.4766C41.5542 43.8362 41.7005 44.1889 41.9548 44.4432C42.2091 44.6975 42.5618 44.8438 42.9214 44.8438C43.281 44.8438 43.6337 44.6975 43.888 44.4432C44.1423 44.1889 44.2886 43.8362 44.2886 43.4766C44.2886 43.1171 44.1423 42.7643 43.888 42.51Z" fill="#3F3D56"/>
<path d="M37.1705 42.1093H28.9843C28.2292 42.1093 27.6171 42.7214 27.6171 43.4765C27.6171 44.2316 28.2292 44.8437 28.9843 44.8437H37.1705C37.9256 44.8437 38.5377 44.2316 38.5377 43.4765C38.5377 42.7214 37.9256 42.1093 37.1705 42.1093Z" fill="#3F3D56"/>
<path d="M48.672 50.3124H28.9843C28.2292 50.3124 27.6171 50.9245 27.6171 51.6796C27.6171 52.4347 28.2292 53.0468 28.9843 53.0468H48.672C49.4271 53.0468 50.0392 52.4347 50.0392 51.6796C50.0392 50.9245 49.4271 50.3124 48.672 50.3124Z" fill="#3F3D56"/>
<path d="M43.888 57.2756C43.6337 57.0213 43.281 56.875 42.9214 56.875C42.5618 56.875 42.2091 57.0213 41.9548 57.2756C41.7005 57.5299 41.5542 57.8826 41.5542 58.2422C41.5542 58.6018 41.7005 58.9545 41.9548 59.2088C42.2091 59.4631 42.5618 59.6094 42.9214 59.6094C43.281 59.6094 43.6337 59.4631 43.888 59.2088C44.1423 58.9545 44.2886 58.6018 44.2886 58.2422C44.2886 57.8826 44.1423 57.5299 43.888 57.2756Z" fill="#3F3D56"/>
<path d="M37.1705 56.8749H28.9843C28.2292 56.8749 27.6171 57.487 27.6171 58.2421C27.6171 58.9972 28.2292 59.6093 28.9843 59.6093H37.1705C37.9256 59.6093 38.5377 58.9972 38.5377 58.2421C38.5377 57.487 37.9256 56.8749 37.1705 56.8749Z" fill="#3F3D56"/>
<path d="M51.3025 5.33216H40.8601C39.3506 3.89374 37.3101 3.00781 35.0653 3.00781H33.8676C32.952 1.19519 31.0709 0 28.9842 0C26.8974 0 25.0165 1.19519 24.1007 3.00781H22.9002C20.6554 3.00781 18.615 3.89374 17.1055 5.33216H6.66612C2.99044 5.33216 0 8.3226 0 11.9983V63.3339C0 67.0096 2.99044 70 6.66612 70H51.3024C54.9781 70 57.9685 67.0096 57.9685 63.3339V11.9983C57.9686 8.3226 54.9782 5.33216 51.3025 5.33216ZM22.9003 5.74218H25.0312C25.6462 5.74218 26.1854 5.33161 26.3491 4.73894C26.6751 3.55865 27.7588 2.73437 28.9843 2.73437C30.2099 2.73437 31.2935 3.55865 31.6194 4.73894C31.7831 5.33161 32.3224 5.74218 32.9373 5.74218H35.0653C38.0328 5.74218 40.4754 8.03221 40.7191 10.9376H17.2465C17.4903 8.03221 19.933 5.74218 22.9003 5.74218ZM55.2343 63.334C55.2343 65.502 53.4705 67.2658 51.3025 67.2658H6.66612C4.49818 67.2658 2.73437 65.502 2.73437 63.334V11.9983C2.73437 9.83033 4.49818 8.06653 6.66612 8.06653H15.1901C14.7422 9.09356 14.4922 10.2259 14.4922 11.4161V12.3048C14.4922 13.0599 15.1043 13.672 15.8593 13.672H42.1064C42.8615 13.672 43.4736 13.0599 43.4736 12.3048V11.4161C43.4736 10.226 43.2236 9.09356 42.7757 8.06653H51.3025C53.4705 8.06653 55.2343 9.83033 55.2343 11.9983V63.334Z" fill="#3F3D56"/>
<path d="M20.2903 20.4525C19.7564 19.9186 18.8907 19.9186 18.3569 20.4524L12.5105 26.2989L10.7095 24.4978C10.1756 23.964 9.30993 23.964 8.7759 24.4978C8.24202 25.0316 8.24202 25.8973 8.7759 26.4314L11.5438 29.1992C11.8108 29.4662 12.1606 29.5997 12.5105 29.5997C12.8604 29.5997 13.2104 29.4662 13.4772 29.1992L20.2903 22.3861C20.8242 21.8522 20.8242 20.9865 20.2903 20.4525Z" fill="#3F3D56"/>
<path d="M16.9531 50.3124H10.3906C9.63553 50.3124 9.02344 50.9245 9.02344 51.6796V58.2421C9.02344 58.9972 9.63553 59.6093 10.3906 59.6093H16.9531C17.7082 59.6093 18.3203 58.9972 18.3203 58.2421V51.6796C18.3203 50.9245 17.7082 50.3124 16.9531 50.3124ZM15.5859 56.8749H11.7578V53.0468H15.5859V56.8749Z" fill="#3F3D56"/>
<path d="M16.9531 35.5468H10.3906C9.63553 35.5468 9.02344 36.1589 9.02344 36.914V43.4765C9.02344 44.2316 9.63553 44.8437 10.3906 44.8437H16.9531C17.7082 44.8437 18.3203 44.2316 18.3203 43.4765V36.914C18.3203 36.1589 17.7082 35.5468 16.9531 35.5468ZM15.5859 42.1093H11.7578V38.2812H15.5859V42.1093Z" fill="#3F3D56"/>
</svg>
