<svg width="53" height="52" viewBox="0 0 53 52" fill="none" xmlns="http://www.w3.org/2000/svg">
<rect x="0.0476227" width="52" height="52" rx="26" fill="#FBF49E"/>
<path d="M38.3137 30.6863C36.5711 28.9436 34.4968 27.6536 32.2337 26.8726C34.6576 25.2032 36.25 22.4093 36.25 19.25C36.25 14.1496 32.1004 10 27 10C21.8996 10 17.75 14.1496 17.75 19.25C17.75 22.4093 19.3424 25.2032 21.7664 26.8726C19.5033 27.6536 17.429 28.9436 15.6863 30.6863C12.6643 33.7083 11 37.7262 11 42H13.5C13.5 34.5561 19.5561 28.5 27 28.5C34.4439 28.5 40.5 34.5561 40.5 42H43C43 37.7262 41.3357 33.7083 38.3137 30.6863ZM27 26C23.2781 26 20.25 22.972 20.25 19.25C20.25 15.528 23.2781 12.5 27 12.5C30.7219 12.5 33.75 15.528 33.75 19.25C33.75 22.972 30.7219 26 27 26Z" fill="#3F3D56"/>
</svg>
