<svg width="44" height="44" viewBox="0 0 44 44" fill="none" xmlns="http://www.w3.org/2000/svg">
<rect width="44" height="44" rx="22" fill="#FFEE00"/>
<path d="M31.3514 13.627C28.9985 11.2882 25.87 10 22.5426 10C19.9255 10 17.4206 10.798 15.2989 12.3081C15.0783 12.4651 15.0274 12.77 15.1853 12.9894C15.3434 13.2087 15.6502 13.2591 15.8707 13.1021C17.8247 11.7117 20.1318 10.9766 22.5426 10.9766C28.8699 10.9766 34.0176 16.0938 34.0176 22.3838C34.0176 28.6737 28.8699 33.7909 22.5426 33.7909C20.6151 33.7909 18.7088 33.3067 17.03 32.3904C16.9185 32.3297 16.7878 32.3143 16.6654 32.3471L11.1975 33.8161L12.6883 28.527C12.7244 28.3992 12.7066 28.2625 12.639 28.1482C11.6108 26.4064 11.0674 24.4133 11.0674 22.3838C11.0674 19.9871 11.8069 17.6937 13.2056 15.7514C13.3635 15.5323 13.3127 15.2273 13.0922 15.0703C12.8716 14.9133 12.5648 14.9637 12.4069 15.183C10.8878 17.292 10.085 19.782 10.085 22.3838C10.085 24.5168 10.6382 26.6132 11.6868 28.461L10.0183 34.3799C9.97048 34.5491 10.0181 34.7307 10.1422 34.8554C10.2358 34.9491 10.3619 35 10.4912 35C10.534 35 10.577 34.9945 10.6194 34.983L16.733 33.3406C18.5129 34.2746 20.5172 34.7675 22.5424 34.7675C25.87 34.7675 28.9985 33.4795 31.3512 31.1403C33.7041 28.8015 35 25.6916 35 22.3837C35 19.0759 33.7043 15.9662 31.3514 13.627Z" fill="#3F3D56"/>
<path d="M30.5941 28.3027C30.8197 28.4525 31.1248 28.392 31.2754 28.1677C32.4266 26.453 33.0352 24.4529 33.0352 22.3837C33.0352 19.5974 31.9439 16.9778 29.9622 15.0079C27.9806 13.038 25.3456 11.9531 22.5426 11.9531C19.7396 11.9531 17.1044 13.038 15.1228 15.0079C13.1411 16.9778 12.0498 19.5974 12.0498 22.3838C12.0498 24.2397 12.5465 26.062 13.4863 27.6538L13.8033 28.191L12.843 31.5979C12.7952 31.7669 12.8426 31.9484 12.9669 32.0732C13.0913 32.1979 13.2735 32.2467 13.4441 32.201L16.9822 31.2503L17.5026 31.5343C19.0371 32.3719 20.7799 32.8144 22.5424 32.8144C24.6242 32.8144 26.6362 32.2094 28.3609 31.0648C28.5865 30.9152 28.6474 30.612 28.4967 30.3876C28.3461 30.1633 28.0412 30.1029 27.8156 30.2526C26.2528 31.2896 24.4295 31.8378 22.5424 31.8378C20.9447 31.8378 19.3654 31.4369 17.9753 30.6783L17.2815 30.2995C17.1702 30.2389 17.0396 30.2234 16.917 30.2562L14.022 31.034L14.8056 28.2545C14.8415 28.1267 14.8238 27.9899 14.7563 27.8757L14.3334 27.1595C13.4821 25.7173 13.0322 24.0659 13.0322 22.3837C13.0322 17.1707 17.2986 12.9297 22.5426 12.9297C27.7866 12.9297 32.0529 17.1707 32.0529 22.3838C32.0529 24.2593 31.5014 26.0719 30.4582 27.6256C30.3076 27.8499 30.3684 28.153 30.5941 28.3027Z" fill="#3F3D56"/>
<path d="M20.7475 20.8839L20.7799 20.8463C21.2199 20.3554 21.1088 19.7788 20.938 19.3817C20.6857 18.7952 20.0257 17.296 19.9631 17.1541C19.8656 16.9092 19.5404 16.5212 18.8863 16.5077C18.3763 16.4974 18.2086 16.5117 18.1695 16.5164C18.1655 16.5168 18.1614 16.5174 18.1576 16.518C18.0824 16.5288 16.3133 16.8134 16.0079 19.4492C15.8674 20.6609 16.4319 22.1044 17.6856 23.74C19.0736 25.5506 20.3495 26.6288 22.2364 27.5852C23.176 28.0614 24.5484 28.619 25.8261 28.619C25.8675 28.619 25.909 28.6184 25.95 28.6171C27.385 28.5755 28.1514 27.9827 28.5414 27.4927C28.9555 26.9725 29.042 26.46 29.0545 26.3711C29.0628 26.3147 29.0827 26.1365 29.0954 25.6725C29.113 25.0223 28.7385 24.6809 28.4971 24.5723C28.3607 24.505 26.9543 23.8119 26.3777 23.534C25.9884 23.3461 25.4161 23.2389 24.9009 23.7945C24.8982 23.7974 24.8957 23.8002 24.8932 23.8027C24.8236 23.8632 24.7547 23.9534 24.5454 24.2319C24.4164 24.4033 24.1591 24.7455 24.0498 24.8598C23.8187 24.876 23.0463 24.5378 21.9513 23.6949C21.2611 23.1636 20.5241 22.3363 20.1164 21.6356C20.1124 21.6257 20.1099 21.6075 20.111 21.5984C20.2801 21.4256 20.5552 21.108 20.7475 20.8839ZM21.3498 24.467C21.6771 24.719 22.3189 25.1884 22.9394 25.5014C23.2328 25.6492 24.1255 26.0995 24.676 25.6153C24.828 25.4816 25.0438 25.1998 25.332 24.8165C25.4151 24.706 25.5172 24.5704 25.5567 24.5235C25.5824 24.5002 25.6037 24.4773 25.6231 24.4564C25.7115 24.361 25.7518 24.3175 25.9489 24.4125C26.5406 24.6978 28.0169 25.4257 28.0698 25.4516C28.0881 25.4697 28.1165 25.5287 28.1132 25.646C28.1023 26.0507 28.0863 26.197 28.0831 26.2245C28.081 26.2346 28.0819 26.2285 28.0808 26.2395C28.075 26.2727 28.0132 26.6 27.7425 26.9214C27.3607 27.375 26.748 27.617 25.9215 27.6409C24.8163 27.6735 23.5505 27.1553 22.6825 26.7152C20.9165 25.8199 19.7739 24.8531 18.4667 23.1479C17.3876 21.7403 16.8748 20.4998 16.9835 19.5608C17.1885 17.7928 18.1632 17.5151 18.2938 17.4858C18.3399 17.4829 18.4957 17.4764 18.866 17.484C18.984 17.4865 19.0417 17.5176 19.0592 17.5365C19.0836 17.5918 19.776 19.1642 20.0345 19.7654C20.1636 20.0658 20.0844 20.1543 20.0462 20.1969C20.0393 20.2045 20.0333 20.2114 20.0281 20.2171L19.9999 20.2501C19.7162 20.5806 19.5164 20.8055 19.4063 20.9178C19.0437 21.2883 19.078 21.8009 19.2637 22.1206C19.7361 22.9343 20.555 23.8552 21.3498 24.467Z" fill="#3F3D56"/>
<path d="M14.0811 14.4605C14.1991 14.4605 14.3175 14.4186 14.4115 14.3335C14.6122 14.1521 14.6272 13.8433 14.4447 13.6438C14.2621 13.4443 13.9516 13.4296 13.7507 13.611L13.7505 13.6112C13.5498 13.7926 13.5352 14.1012 13.7177 14.3009C13.8146 14.4067 13.9476 14.4605 14.0811 14.4605Z" fill="#3F3D56"/>
<path d="M29.2514 29.0855L29.2512 29.0859C29.0687 29.2854 29.0837 29.594 29.2844 29.7754C29.3784 29.8605 29.4966 29.9024 29.6146 29.9024C29.7481 29.9024 29.8813 29.8484 29.9782 29.7424C30.1608 29.5429 30.1459 29.2341 29.9452 29.0527C29.7445 28.8713 29.4338 28.886 29.2514 29.0855Z" fill="#3F3D56"/>
</svg>
